<svg xmlns="http://www.w3.org/2000/svg" xmlns:xlink="http://www.w3.org/1999/xlink" width="500" zoomAndPan="magnify" viewBox="0 0 375 374.999991" height="500" preserveAspectRatio="xMidYMid meet" version="1.0"><defs><g/></defs><g fill="#000000" fill-opacity="1"><g transform="translate(23.642742, 297.141657)"><g><path d="M 163.605469 -124.28125 C 201.871094 -142.539062 196.957031 -193.09375 150.613281 -202.574219 C 111.292969 -210.296875 74.78125 -201.871094 48.449219 -172.03125 C 45.289062 -168.871094 45.640625 -163.957031 48.800781 -160.796875 C 52.3125 -157.988281 57.226562 -158.339844 60.035156 -161.496094 C 71.972656 -175.191406 86.71875 -183.617188 103.21875 -187.128906 C 104.972656 -187.476562 106.378906 -187.128906 105.675781 -185.019531 L 80.75 -111.644531 C 79.34375 -107.78125 79.34375 -106.378906 75.484375 -107.082031 C 44.9375 -111.996094 12.640625 -96.898438 2.808594 -67.40625 C -2.457031 -50.90625 0.351562 -31.949219 12.289062 -17.90625 C 24.226562 -3.863281 42.480469 2.808594 63.195312 3.160156 C 104.621094 3.863281 155.53125 -12.640625 178.351562 -49.152344 C 189.234375 -67.058594 192.394531 -89.175781 181.507812 -106.730469 C 177.648438 -113.75 171.679688 -119.71875 163.605469 -124.28125 Z M 51.960938 -13.691406 C 30.542969 -17.554688 15.796875 -31.597656 16.148438 -51.609375 C 16.5 -78.292969 43.535156 -94.792969 70.566406 -91.632812 C 73.375 -91.28125 72.675781 -90.226562 72.675781 -88.121094 L 58.28125 -46.34375 C 56.875 -42.128906 58.980469 -37.917969 63.195312 -36.511719 C 67.40625 -35.109375 71.972656 -37.214844 73.375 -41.425781 L 87.769531 -83.558594 C 88.472656 -84.960938 88.824219 -86.367188 91.28125 -84.960938 C 96.898438 -81.800781 101.113281 -77.589844 103.21875 -70.917969 C 104.621094 -67.058594 109.1875 -64.597656 113.398438 -66.003906 C 117.613281 -67.40625 119.71875 -71.972656 118.316406 -76.183594 C 114.453125 -87.769531 106.378906 -95.144531 96.195312 -100.410156 C 93.738281 -101.460938 94.441406 -102.867188 95.144531 -104.972656 L 123.230469 -186.777344 C 123.582031 -188.179688 124.28125 -189.585938 126.039062 -189.234375 C 151.667969 -192.746094 185.019531 -175.191406 168.167969 -147.105469 C 162.902344 -138.328125 149.210938 -133.410156 130.601562 -133.761719 C 130.25 -133.761719 130.25 -133.761719 130.25 -133.761719 C 130.25 -133.761719 130.25 -133.410156 130.601562 -133.761719 C 130.25 -133.761719 130.25 -133.761719 130.25 -133.761719 C 128.847656 -133.761719 127.441406 -133.761719 125.6875 -133.761719 C 121.472656 -134.113281 117.964844 -130.601562 117.613281 -126.039062 C 117.613281 -121.824219 121.125 -117.964844 125.335938 -117.964844 C 147.453125 -117.261719 161.496094 -109.539062 168.167969 -98.652344 C 175.890625 -85.3125 172.03125 -69.515625 164.65625 -57.578125 C 144.292969 -24.925781 88.824219 -7.371094 51.960938 -13.691406 Z M 51.960938 -13.691406 "/></g></g></g><g fill="#000000" fill-opacity="1"><g transform="translate(242.783233, 172.61674)"><g><path d="M -6.386719 -4.355469 C -6.96875 -2.613281 -5.953125 -0.726562 -4.210938 -0.144531 C -2.613281 0.433594 -0.726562 -0.582031 -0.144531 -2.324219 L 1.160156 -6.386719 C 1.453125 -7.695312 2.03125 -7.402344 2.613281 -6.386719 C 8.710938 5.660156 24.535156 -0.582031 32.957031 -13.648438 C 33.535156 -14.519531 34.261719 -14.953125 35.277344 -14.808594 C 44.132812 -13.792969 50.8125 -18.292969 55.023438 -26.710938 C 55.894531 -28.308594 55.167969 -30.34375 53.570312 -31.066406 C 51.972656 -31.9375 50.085938 -31.359375 49.214844 -29.617188 C 46.601562 -24.679688 43.261719 -21.484375 38.183594 -21.195312 C 36.875 -21.195312 36.585938 -21.195312 37.019531 -22.503906 C 38.617188 -27.4375 39.34375 -33.101562 38.472656 -39.34375 L 37.890625 -42.683594 C 36.292969 -47.617188 32.085938 -51.972656 27.003906 -51.683594 C 15.242188 -51.394531 12.484375 -27.730469 25.550781 -18.4375 C 26.710938 -17.566406 27.148438 -16.695312 26.277344 -15.535156 C 22.9375 -10.886719 18.726562 -7.839844 15.097656 -6.824219 C 12.484375 -6.242188 10.597656 -6.386719 9.144531 -8.273438 C 5.660156 -12.921875 6.53125 -22.792969 7.984375 -27.292969 L 25.261719 -80.574219 C 25.839844 -82.316406 24.96875 -84.203125 23.226562 -84.785156 C 21.484375 -85.363281 19.597656 -84.347656 19.019531 -82.605469 Z M 30.777344 -24.390625 C 30.488281 -23.375 29.617188 -23.519531 28.890625 -24.097656 C 23.808594 -28.164062 22.355469 -35.859375 24.097656 -41.375 C 26.277344 -48.488281 30.488281 -44.132812 31.648438 -40.648438 C 32.085938 -39.199219 31.9375 -38.761719 32.085938 -37.457031 C 32.519531 -32.664062 31.9375 -28.308594 30.777344 -24.390625 Z M 30.777344 -24.390625 "/></g></g></g></svg>